<svg width="600" height="400" xmlns="http://www.w3.org/2000/svg">
    <defs>
        <linearGradient id="socialGrad" x1="0%" y1="0%" x2="100%" y2="100%">
            <stop offset="0%" style="stop-color:#8b5cf6;stop-opacity:0.8" />
            <stop offset="100%" style="stop-color:#8b5cf6;stop-opacity:0.4" />
        </linearGradient>
    </defs>
    <rect width="100%" height="100%" fill="url(#socialGrad)"/>
    <rect x="20" y="20" width="560" height="60" fill="rgba(255,255,255,0.9)" rx="8"/>
    <text x="30" y="50" font-family="system-ui, sans-serif" font-size="18" font-weight="bold" fill="#1f2937">社交应用 "Circle"</text>
    <rect x="20" y="100" width="560" height="260" fill="rgba(255,255,255,0.7)" rx="8"/>
    <circle cx="150" cy="180" r="35" fill="rgba(139,92,246,0.3)"/>
    <text x="150" y="188" font-family="system-ui, sans-serif" font-size="11" text-anchor="middle" fill="#6d28d9">用户</text>
    <circle cx="300" cy="180" r="35" fill="rgba(139,92,246,0.3)"/>
    <text x="300" y="188" font-family="system-ui, sans-serif" font-size="11" text-anchor="middle" fill="#6d28d9">动态</text>
    <circle cx="450" cy="180" r="35" fill="rgba(139,92,246,0.3)"/>
    <text x="450" y="188" font-family="system-ui, sans-serif" font-size="11" text-anchor="middle" fill="#6d28d9">聊天</text>
    <rect x="40" y="240" width="520" height="100" fill="rgba(255,255,255,0.5)" rx="4"/>
    <rect x="60" y="260" width="80" height="20" fill="rgba(139,92,246,0.2)" rx="2"/>
    <rect x="160" y="260" width="80" height="20" fill="rgba(139,92,246,0.2)" rx="2"/>
    <rect x="260" y="260" width="80" height="20" fill="rgba(139,92,246,0.2)" rx="2"/>
    <rect x="360" y="260" width="80" height="20" fill="rgba(139,92,246,0.2)" rx="2"/>
    <rect x="460" y="260" width="80" height="20" fill="rgba(139,92,246,0.2)" rx="2"/>
    <text x="300" y="310" font-family="system-ui, sans-serif" font-size="12" text-anchor="middle" fill="#6d28d9">实时互动</text>
</svg>


